TITLE ""
FILE "2Q_t_1252-1269.mp3" MP3
  TRACK 01 AUDIO
    TITLE "2Q_t_1252-1269_01"
    INDEX 01 00:00:00
  TRACK 02 AUDIO
    TITLE "2Q_t_1252-1269_02"
    INDEX 01 00:00:14
  TRACK 03 AUDIO
    TITLE "2Q_t_1252-1269_03"
    INDEX 01 00:01:53
  TRACK 04 AUDIO
    TITLE "2Q_t_1252-1269_04"
    INDEX 01 00:02:25
  TRACK 05 AUDIO
    TITLE "2Q_t_1252-1269_05"
    INDEX 01 00:03:38
  TRACK 06 AUDIO
    TITLE "2Q_t_1252-1269_06"
    INDEX 01 00:04:10
  TRACK 07 AUDIO
    TITLE "2Q_t_1252-1269_07"
    INDEX 01 00:05:13
  TRACK 08 AUDIO
    TITLE "2Q_t_1252-1269_08"
    INDEX 01 00:05:62
  TRACK 09 AUDIO
    TITLE "2Q_t_1252-1269_09"
    INDEX 01 00:09:03
  TRACK 10 AUDIO
    TITLE "2Q_t_1252-1269_10"
    INDEX 01 00:09:50
  TRACK 11 AUDIO
    TITLE "2Q_t_1252-1269_11"
    INDEX 01 00:10:69
  TRACK 12 AUDIO
    TITLE "2Q_t_1252-1269_12"
    INDEX 01 00:11:43
  TRACK 13 AUDIO
    TITLE "2Q_t_1252-1269_13"
    INDEX 01 00:12:35
  TRACK 14 AUDIO
    TITLE "2Q_t_1252-1269_14"
    INDEX 01 00:13:07
  TRACK 15 AUDIO
    TITLE "2Q_t_1252-1269_15"
    INDEX 01 00:14:08
  TRACK 16 AUDIO
    TITLE "2Q_t_1252-1269_16"
    INDEX 01 00:14:59
  TRACK 17 AUDIO
    TITLE "2Q_t_1252-1269_17"
    INDEX 01 00:16:52
  TRACK 18 AUDIO
    TITLE "2Q_t_1252-1269_18"
    INDEX 01 00:17:22
  TRACK 19 AUDIO
    TITLE "2Q_t_1252-1269_19"
    INDEX 01 00:18:24
  TRACK 20 AUDIO
    TITLE "2Q_t_1252-1269_20"
    INDEX 01 00:19:08
  TRACK 21 AUDIO
    TITLE "2Q_t_1252-1269_21"
    INDEX 01 00:20:09
  TRACK 22 AUDIO
    TITLE "2Q_t_1252-1269_22"
    INDEX 01 00:20:58
  TRACK 23 AUDIO
    TITLE "2Q_t_1252-1269_23"
    INDEX 01 00:22:02
  TRACK 24 AUDIO
    TITLE "2Q_t_1252-1269_24"
    INDEX 01 00:22:49
  TRACK 25 AUDIO
    TITLE "2Q_t_1252-1269_25"
    INDEX 01 00:24:30
  TRACK 26 AUDIO
    TITLE "2Q_t_1252-1269_26"
    INDEX 01 00:24:75
  TRACK 27 AUDIO
    TITLE "2Q_t_1252-1269_27"
    INDEX 01 00:26:12
  TRACK 28 AUDIO
    TITLE "2Q_t_1252-1269_28"
    INDEX 01 00:26:59
  TRACK 29 AUDIO
    TITLE "2Q_t_1252-1269_29"
    INDEX 01 00:29:45
  TRACK 30 AUDIO
    TITLE "2Q_t_1252-1269_30"
    INDEX 01 00:30:15
  TRACK 31 AUDIO
    TITLE "2Q_t_1252-1269_31"
    INDEX 01 00:31:56
  TRACK 32 AUDIO
    TITLE "2Q_t_1252-1269_32"
    INDEX 01 00:32:28
  TRACK 33 AUDIO
    TITLE "2Q_t_1252-1269_33"
    INDEX 01 00:35:58
  TRACK 34 AUDIO
    TITLE "2Q_t_1252-1269_34"
    INDEX 01 00:36:28
  TRACK 35 AUDIO
    TITLE "2Q_t_1252-1269_35"
    INDEX 01 00:37:41
  TRACK 36 AUDIO
    TITLE "2Q_t_1252-1269_36"
    INDEX 01 00:38:21
  TRACK 37 AUDIO
    TITLE "2Q_t_1252-1269_37"
    INDEX 01 00:40:25
  TRACK 38 AUDIO
    TITLE "2Q_t_1252-1269_38"
    INDEX 01 00:40:73
  TRACK 39 AUDIO
    TITLE "2Q_t_1252-1269_39"
    INDEX 01 00:42:09
  TRACK 40 AUDIO
    TITLE "2Q_t_1252-1269_40"
    INDEX 01 00:42:62
  TRACK 41 AUDIO
    TITLE "2Q_t_1252-1269_41"
    INDEX 01 00:45:05
  TRACK 42 AUDIO
    TITLE "2Q_t_1252-1269_42"
    INDEX 01 00:45:48
  TRACK 43 AUDIO
    TITLE "2Q_t_1252-1269_43"
    INDEX 01 00:46:63
  TRACK 44 AUDIO
    TITLE "2Q_t_1252-1269_44"
    INDEX 01 00:47:43
  TRACK 45 AUDIO
    TITLE "2Q_t_1252-1269_45"
    INDEX 01 00:48:49
  TRACK 46 AUDIO
    TITLE "2Q_t_1252-1269_46"
    INDEX 01 00:49:19
  TRACK 47 AUDIO
    TITLE "2Q_t_1252-1269_47"
    INDEX 01 00:50:38
  TRACK 48 AUDIO
    TITLE "2Q_t_1252-1269_48"
    INDEX 01 00:51:16
  TRACK 49 AUDIO
    TITLE "2Q_t_1252-1269_49"
    INDEX 01 00:53:32
  TRACK 50 AUDIO
    TITLE "2Q_t_1252-1269_50"
    INDEX 01 00:54:02
  TRACK 51 AUDIO
    TITLE "2Q_t_1252-1269_51"
    INDEX 01 00:55:17
  TRACK 52 AUDIO
    TITLE "2Q_t_1252-1269_52"
    INDEX 01 00:55:72
  TRACK 53 AUDIO
    TITLE "2Q_t_1252-1269_53"
    INDEX 01 00:57:12
  TRACK 54 AUDIO
    TITLE "2Q_t_1252-1269_54"
    INDEX 01 00:57:57
  TRACK 55 AUDIO
    TITLE "2Q_t_1252-1269_55"
    INDEX 01 00:58:68
  TRACK 56 AUDIO
    TITLE "2Q_t_1252-1269_56"
    INDEX 01 00:59:42
  TRACK 57 AUDIO
    TITLE "2Q_t_1252-1269_57"
    INDEX 01 01:01:51
  TRACK 58 AUDIO
    TITLE "2Q_t_1252-1269_58"
    INDEX 01 01:02:23
  TRACK 59 AUDIO
    TITLE "2Q_t_1252-1269_59"
    INDEX 01 01:03:42
  TRACK 60 AUDIO
    TITLE "2Q_t_1252-1269_60"
    INDEX 01 01:04:18
  TRACK 61 AUDIO
    TITLE "2Q_t_1252-1269_61"
    INDEX 01 01:05:23
  TRACK 62 AUDIO
    TITLE "2Q_t_1252-1269_62"
    INDEX 01 01:05:69
  TRACK 63 AUDIO
    TITLE "2Q_t_1252-1269_63"
    INDEX 01 01:06:64
  TRACK 64 AUDIO
    TITLE "2Q_t_1252-1269_64"
    INDEX 01 01:07:38
  TRACK 65 AUDIO
    TITLE "2Q_t_1252-1269_65"
    INDEX 01 01:10:54
  TRACK 66 AUDIO
    TITLE "2Q_t_1252-1269_66"
    INDEX 01 01:11:24
  TRACK 67 AUDIO
    TITLE "2Q_t_1252-1269_67"
    INDEX 01 01:12:53
  TRACK 68 AUDIO
    TITLE "2Q_t_1252-1269_68"
    INDEX 01 01:13:25
  TRACK 69 AUDIO
    TITLE "2Q_t_1252-1269_69"
    INDEX 01 01:16:55
  TRACK 70 AUDIO
    TITLE "2Q_t_1252-1269_70"
    INDEX 01 01:17:27
  TRACK 71 AUDIO
    TITLE "2Q_t_1252-1269_71"
    INDEX 01 01:18:57
  TRACK 72 AUDIO
    TITLE "2Q_t_1252-1269_72"
    INDEX 01 01:19:37
  TRACK 73 AUDIO
    TITLE "2Q_t_1252-1269_73"
    INDEX 01 01:20:50
